<?xml version="1.0" encoding="UTF-8" standalone="no" ?>
<!DOCTYPE svg PUBLIC "-//W3C//DTD SVG 1.1//EN" "http://www.w3.org/Graphics/SVG/1.1/DTD/svg11.dtd">
<svg xmlns="http://www.w3.org/2000/svg" xmlns:xlink="http://www.w3.org/1999/xlink" version="1.1" width="500" height="500" viewBox="0 0 500 500" xml:space="preserve">
<desc>Created with Fabric.js 5.3.0</desc>
<defs>
</defs>
<g transform="matrix(2.0372693036 0 0 2.0372693036 260.3904321863 220.7591904535)" id="fYjZ1UCky_6zIAX8r2Fj1"  >
<path style="stroke: rgb(53,78,144); stroke-width: 4; stroke-dasharray: none; stroke-linecap: butt; stroke-dashoffset: 0; stroke-linejoin: miter; stroke-miterlimit: 4; fill: rgb(255,255,255); fill-opacity: 0; fill-rule: nonzero; opacity: 1;"  transform=" translate(0, 0)" d="M -40.7628 -3.67291 C -40.7628 -3.67291 -80.41797 22.57043 -57.573139999999995 30.329049999999995 C -46.91244999999999 33.949659999999994 -16.93642 23.723739999999996 9.18422000000001 8.691119999999994 C 39.03759000000001 -8.489710000000006 64.66505000000001 -31.060710000000004 64.66505000000001 -31.060710000000004" stroke-linecap="round" />
</g>
<g transform="matrix(2.0372693036 0 0 2.0372693036 215.8909090293 288.8788805561)" id="tb69RV-a5vMdknPRLUFqf"  >
<path style="stroke: rgb(53,78,144); stroke-width: 4; stroke-dasharray: none; stroke-linecap: butt; stroke-dashoffset: 0; stroke-linejoin: miter; stroke-miterlimit: 4; fill: rgb(255,255,255); fill-opacity: 0; fill-rule: nonzero; opacity: 1;"  transform=" translate(0, 0)" d="M -10.07496 -17.53068 C -10.07496 -17.53068 -49.73013 8.71266 -26.8853 16.471279999999997 C -18.57299 19.294329999999995 -7.45824 16.045189999999998 2.30931 11.778709999999997 C 19.38607 4.3195599999999965 33.97722 -7.881440000000005 33.97722 -7.881440000000005" stroke-linecap="round" />
</g>
<g transform="matrix(2.0372693036 0 0 2.0372693036 209.1529220873 203.7324976091)" id="jOKbg_mN4PKS7iwN3Nxj0"  >
<path style="stroke: rgb(53,78,144); stroke-width: 4; stroke-dasharray: none; stroke-linecap: butt; stroke-dashoffset: 0; stroke-linejoin: miter; stroke-miterlimit: 4; fill: rgb(255,255,255); fill-opacity: 0; fill-rule: nonzero; opacity: 1;"  transform=" translate(0, 0)" d="M -10.76262 -18.53124 C -10.76262 -18.53124 -53.76788 9.554649999999999 -30.923050000000003 17.31327 C -8.078220000000002 25.07189 37.61143 -6.774900000000002 37.61143 -6.774900000000002" stroke-linecap="round" />
</g>
</svg>